<svg width="47" height="66" viewBox="0 0 47 66" fill="none" xmlns="http://www.w3.org/2000/svg">
<path d="M37.0645 65.448C36.2538 65.448 35.6138 65.2133 35.1445 64.744C34.6752 64.2747 34.4405 63.6133 34.4405 62.76V55.336H16.0725C15.2192 55.336 14.5365 55.144 14.0245 54.76C13.5552 54.3333 13.3205 53.736 13.3205 52.968C13.3205 52.4987 13.4272 52.0293 13.6405 51.56C13.8538 51.048 14.2378 50.408 14.7925 49.64L34.3125 21.224C34.6965 20.6267 35.1232 20.1787 35.5925 19.88C36.0618 19.5813 36.6165 19.432 37.2565 19.432C37.9392 19.432 38.5152 19.6453 38.9845 20.072C39.4965 20.4987 39.7525 21.1813 39.7525 22.12V50.856H44.4245C45.2352 50.856 45.8538 51.048 46.2805 51.432C46.7072 51.816 46.9205 52.3707 46.9205 53.096C46.9205 53.8213 46.7072 54.376 46.2805 54.76C45.8538 55.144 45.2352 55.336 44.4245 55.336H39.7525V62.76C39.7525 63.6133 39.5178 64.2747 39.0485 64.744C38.5792 65.2133 37.9178 65.448 37.0645 65.448ZM34.4405 50.856V26.024H35.9765L18.0565 52.264V50.856H34.4405Z" fill="#4540DB" fill-opacity="0.7"/>
<path d="M2.73092 64.9946C1.86613 65.038 1.20616 64.8211 0.751004 64.344C0.250335 63.8669 0 63.2813 0 62.5873C0 62.0669 0.182062 61.5898 0.546185 61.156C0.864792 60.7223 1.38822 60.4837 2.11647 60.4404L4.23293 60.3102C6.55422 60.1367 8.32932 59.3777 9.55823 58.0331C10.7871 56.6452 11.4016 54.7584 11.4016 52.3729V21.0138C11.4016 20.1029 11.6292 19.4306 12.0843 18.9969C12.585 18.5198 13.2905 18.2812 14.2008 18.2812C15.1111 18.2812 15.7938 18.5198 16.249 18.9969C16.7497 19.4306 17 20.1029 17 21.0138V52.4379C17 54.9102 16.5448 57.0572 15.6345 58.8789C14.7242 60.6572 13.3588 62.0452 11.5382 63.0428C9.76305 64.0404 7.57831 64.6259 4.98394 64.7994L2.73092 64.9946Z" fill="#4540DB" fill-opacity="0.7"/>
</svg>
