<svg width="70" height="99" viewBox="0 0 105 99" fill="none" xmlns="http://www.w3.org/2000/svg">
<path d="M36.3495 77.224C35.7095 77.2667 35.1975 77.16 34.8135 76.904C34.3868 76.648 34.1095 76.3067 33.9815 75.88C33.8108 75.496 33.7682 75.0907 33.8535 74.664C33.8962 74.28 34.0668 73.9387 34.3655 73.64C34.6642 73.3413 35.0695 73.192 35.5815 73.192C37.9282 73.064 39.6562 72.424 40.7655 71.272C41.9175 70.1627 42.4935 68.392 42.4935 65.96V36.072C42.4935 35.2187 42.7068 34.5787 43.1335 34.152C43.6028 33.6827 44.2642 33.448 45.1175 33.448C45.9282 33.448 46.5468 33.6827 46.9735 34.152C47.4428 34.5787 47.6775 35.2187 47.6775 36.072V65.576C47.6775 68.1787 47.2295 70.312 46.3335 71.976C45.4802 73.6827 44.2215 74.9413 42.5575 75.752C40.8935 76.6053 38.8242 77.096 36.3495 77.224ZM45.0535 26.408C43.9868 26.408 43.1548 26.1307 42.5575 25.576C41.9602 24.9787 41.6615 24.1893 41.6615 23.208C41.6615 22.184 41.9602 21.416 42.5575 20.904C43.1548 20.3493 43.9868 20.072 45.0535 20.072C46.1628 20.072 47.0162 20.3493 47.6135 20.904C48.2108 21.416 48.5095 22.184 48.5095 23.208C48.5095 24.1893 48.2108 24.9787 47.6135 25.576C47.0162 26.1307 46.1628 26.408 45.0535 26.408Z" fill="#4540DB" fill-opacity="0.8"/>
<path d="M68.0432 84.8388C67.2326 84.8388 66.5926 84.6041 66.1232 84.1348C65.6539 83.6655 65.4192 83.0041 65.4192 82.1508V74.7268H47.0512C46.1979 74.7268 45.5152 74.5348 45.0032 74.1508C44.5339 73.7241 44.2992 73.1268 44.2992 72.3588C44.2992 71.8895 44.4059 71.4201 44.6192 70.9508C44.8326 70.4388 45.2166 69.7988 45.7712 69.0308L65.2912 40.6148C65.6752 40.0175 66.1019 39.5695 66.5712 39.2708C67.0406 38.9721 67.5952 38.8228 68.2352 38.8228C68.9179 38.8228 69.4939 39.0361 69.9632 39.4628C70.4752 39.8895 70.7312 40.5721 70.7312 41.5108V70.2468H75.4032C76.2139 70.2468 76.8326 70.4388 77.2592 70.8228C77.6859 71.2068 77.8992 71.7615 77.8992 72.4868C77.8992 73.2121 77.6859 73.7668 77.2592 74.1508C76.8326 74.5348 76.2139 74.7268 75.4032 74.7268H70.7312V82.1508C70.7312 83.0041 70.4966 83.6655 70.0272 84.1348C69.5579 84.6041 68.8966 84.8388 68.0432 84.8388ZM65.4192 70.2468V45.4148H66.9552L49.0352 71.6548V70.2468H65.4192Z" fill="#4540DB" fill-opacity="0.8"/>
<rect x="1.5" y="6.5" width="102" height="91" rx="8.5" stroke="#4540DB" stroke-opacity="0.8" stroke-width="3"/>
</svg>
