<svg width="116" height="27" viewBox="0 0 116 27" fill="none" xmlns="http://www.w3.org/2000/svg">
<path d="M4.08 22.024C3.84533 22.0453 3.65333 22.008 3.504 21.912C3.35467 21.8267 3.25333 21.7147 3.2 21.576C3.136 21.4373 3.11467 21.2933 3.136 21.144C3.15733 20.9947 3.22133 20.8613 3.328 20.744C3.424 20.6373 3.55733 20.5787 3.728 20.568C4.208 20.5253 4.55467 20.3867 4.768 20.152C4.992 19.928 5.104 19.5813 5.104 19.112V12.056C5.104 11.7253 5.18933 11.4747 5.36 11.304C5.54133 11.1333 5.792 11.048 6.112 11.048C6.432 11.048 6.67733 11.1333 6.848 11.304C7.01867 11.4747 7.104 11.7253 7.104 12.056V18.936C7.104 19.6187 6.992 20.1787 6.768 20.616C6.55467 21.0533 6.224 21.384 5.776 21.608C5.33867 21.832 4.77333 21.9707 4.08 22.024ZM6.096 9.576C5.72267 9.576 5.42933 9.48533 5.216 9.304C5.01333 9.112 4.912 8.85067 4.912 8.52C4.912 8.17867 5.01333 7.91733 5.216 7.736C5.42933 7.55467 5.72267 7.464 6.096 7.464C6.48 7.464 6.77333 7.55467 6.976 7.736C7.17867 7.91733 7.28 8.17867 7.28 8.52C7.28 8.85067 7.17867 9.112 6.976 9.304C6.77333 9.48533 6.48 9.576 6.096 9.576ZM12.7486 19.16C11.938 19.16 11.234 18.9947 10.6366 18.664C10.0393 18.3333 9.57529 17.864 9.24463 17.256C8.91396 16.6373 8.74863 15.912 8.74863 15.08C8.74863 14.4507 8.83929 13.8907 9.02063 13.4C9.21263 12.8987 9.48463 12.472 9.83663 12.12C10.1886 11.7573 10.61 11.4853 11.1006 11.304C11.5913 11.112 12.1406 11.016 12.7486 11.016C13.5593 11.016 14.2633 11.1813 14.8606 11.512C15.458 11.8427 15.922 12.312 16.2526 12.92C16.5833 13.528 16.7486 14.248 16.7486 15.08C16.7486 15.7093 16.6526 16.2747 16.4606 16.776C16.2793 17.2773 16.0126 17.7093 15.6606 18.072C15.3086 18.424 14.8873 18.696 14.3966 18.888C13.906 19.0693 13.3566 19.16 12.7486 19.16ZM12.7486 17.64C13.1433 17.64 13.49 17.544 13.7886 17.352C14.0873 17.16 14.3166 16.8773 14.4766 16.504C14.6473 16.12 14.7326 15.6453 14.7326 15.08C14.7326 14.2267 14.5513 13.592 14.1886 13.176C13.826 12.7493 13.346 12.536 12.7486 12.536C12.354 12.536 12.0073 12.632 11.7086 12.824C11.41 13.0053 11.1753 13.288 11.0046 13.672C10.8446 14.0453 10.7646 14.5147 10.7646 15.08C10.7646 15.9227 10.946 16.5627 11.3086 17C11.6713 17.4267 12.1513 17.64 12.7486 17.64ZM22.9114 19.16C22.25 19.16 21.6687 18.9947 21.1674 18.664C20.6767 18.3333 20.3514 17.8907 20.1914 17.336L20.3674 16.936V18.104C20.3674 18.4347 20.282 18.6907 20.1114 18.872C19.9407 19.0427 19.7007 19.128 19.3914 19.128C19.0714 19.128 18.826 19.0427 18.6554 18.872C18.4847 18.6907 18.3994 18.4347 18.3994 18.104V8.6C18.3994 8.26933 18.4847 8.01867 18.6554 7.848C18.826 7.67733 19.0714 7.592 19.3914 7.592C19.7114 7.592 19.9567 7.67733 20.1274 7.848C20.3087 8.01867 20.3994 8.26933 20.3994 8.6V12.76H20.2074C20.378 12.2373 20.7087 11.816 21.1994 11.496C21.69 11.176 22.2607 11.016 22.9114 11.016C23.6047 11.016 24.2074 11.1813 24.7194 11.512C25.2314 11.8427 25.6314 12.312 25.9194 12.92C26.2074 13.5173 26.3514 14.2373 26.3514 15.08C26.3514 15.912 26.2074 16.6373 25.9194 17.256C25.6314 17.864 25.226 18.3333 24.7034 18.664C24.1914 18.9947 23.594 19.16 22.9114 19.16ZM22.3514 17.64C22.746 17.64 23.0927 17.544 23.3914 17.352C23.69 17.16 23.9194 16.8773 24.0794 16.504C24.25 16.12 24.3354 15.6453 24.3354 15.08C24.3354 14.2267 24.154 13.592 23.7914 13.176C23.4287 12.7493 22.9487 12.536 22.3514 12.536C21.9567 12.536 21.61 12.632 21.3114 12.824C21.0127 13.0053 20.778 13.288 20.6074 13.672C20.4474 14.0453 20.3674 14.5147 20.3674 15.08C20.3674 15.9227 20.5487 16.5627 20.9114 17C21.274 17.4267 21.754 17.64 22.3514 17.64ZM30.8571 19.16C30.3985 19.16 29.9131 19.112 29.4011 19.016C28.8891 18.92 28.4305 18.7547 28.0251 18.52C27.8545 18.4133 27.7318 18.2907 27.6571 18.152C27.5931 18.0027 27.5665 17.8587 27.5771 17.72C27.5985 17.5707 27.6518 17.4427 27.7371 17.336C27.8331 17.2293 27.9505 17.16 28.0891 17.128C28.2385 17.096 28.3985 17.1227 28.5691 17.208C28.9958 17.4107 29.3958 17.5547 29.7691 17.64C30.1425 17.7147 30.5105 17.752 30.8731 17.752C31.3851 17.752 31.7638 17.6667 32.0091 17.496C32.2651 17.3147 32.3931 17.08 32.3931 16.792C32.3931 16.5467 32.3078 16.36 32.1371 16.232C31.9771 16.0933 31.7318 15.992 31.4011 15.928L29.8011 15.624C29.1398 15.496 28.6331 15.256 28.2811 14.904C27.9398 14.5413 27.7691 14.0773 27.7691 13.512C27.7691 13 27.9078 12.5573 28.1851 12.184C28.4731 11.8107 28.8678 11.5227 29.3691 11.32C29.8705 11.1173 30.4465 11.016 31.0971 11.016C31.5665 11.016 32.0038 11.0693 32.4091 11.176C32.8251 11.272 33.2251 11.4267 33.6091 11.64C33.7691 11.7253 33.8758 11.8373 33.9291 11.976C33.9931 12.1147 34.0091 12.2587 33.9771 12.408C33.9451 12.5467 33.8811 12.6747 33.7851 12.792C33.6891 12.8987 33.5665 12.968 33.4171 13C33.2785 13.0213 33.1185 12.9893 32.9371 12.904C32.6065 12.7333 32.2865 12.6107 31.9771 12.536C31.6785 12.4613 31.3905 12.424 31.1131 12.424C30.5905 12.424 30.2011 12.5147 29.9451 12.696C29.6998 12.8773 29.5771 13.1173 29.5771 13.416C29.5771 13.64 29.6518 13.8267 29.8011 13.976C29.9505 14.1253 30.1798 14.2267 30.4891 14.28L32.0891 14.584C32.7825 14.712 33.3051 14.9467 33.6571 15.288C34.0198 15.6293 34.2011 16.088 34.2011 16.664C34.2011 17.4427 33.8971 18.056 33.2891 18.504C32.6811 18.9413 31.8705 19.16 30.8571 19.16Z" fill="#4540DB"/>
<path d="M35.767 17.9545V16.017L40.625 8.36364H42.2955V11.0455H41.3068L38.2443 15.892V15.983H45.1477V17.9545H35.767ZM41.3523 20V17.3636L41.3977 16.5057V8.36364H43.7045V20H41.3523ZM46.4119 10.392V8.36364H55.9688V10.392H52.4062V20H49.9744V10.392H46.4119ZM57.5426 20V8.36364H65.3835V10.392H60.0028V13.1648H64.9801V15.1932H60.0028V17.9716H65.4062V20H57.5426ZM77.6065 12.4375H75.1179C75.0724 12.1155 74.9796 11.8295 74.8395 11.5795C74.6993 11.3258 74.5194 11.1098 74.2997 10.9318C74.08 10.7538 73.8262 10.6174 73.5384 10.5227C73.2543 10.428 72.9455 10.3807 72.6122 10.3807C72.0099 10.3807 71.4853 10.5303 71.0384 10.8295C70.5914 11.125 70.2448 11.5568 69.9986 12.125C69.7524 12.6894 69.6293 13.375 69.6293 14.1818C69.6293 15.0114 69.7524 15.7083 69.9986 16.2727C70.2486 16.8371 70.5971 17.2633 71.044 17.5511C71.491 17.839 72.008 17.983 72.5952 17.983C72.9247 17.983 73.2296 17.9394 73.5099 17.8523C73.794 17.7652 74.0459 17.6383 74.2656 17.4716C74.4853 17.3011 74.6671 17.0947 74.8111 16.8523C74.9588 16.6098 75.0611 16.3333 75.1179 16.0227L77.6065 16.0341C77.5421 16.5682 77.3812 17.0833 77.1236 17.5795C76.8698 18.072 76.527 18.5133 76.0952 18.9034C75.6671 19.2898 75.1558 19.5966 74.5611 19.8239C73.9702 20.0473 73.3016 20.1591 72.5554 20.1591C71.5175 20.1591 70.5895 19.9242 69.7713 19.4545C68.9569 18.9848 68.313 18.3049 67.8395 17.4148C67.3698 16.5246 67.1349 15.447 67.1349 14.1818C67.1349 12.9129 67.3736 11.8333 67.8509 10.9432C68.3281 10.053 68.9759 9.375 69.794 8.90909C70.6122 8.43939 71.5327 8.20455 72.5554 8.20455C73.2296 8.20455 73.8546 8.29924 74.4304 8.48864C75.0099 8.67803 75.5232 8.95455 75.9702 9.31818C76.4171 9.67803 76.7808 10.1193 77.0611 10.642C77.3452 11.1648 77.527 11.7633 77.6065 12.4375ZM79.3707 20V8.36364H81.831V13.1648H86.8253V8.36364H89.2798V20H86.8253V15.1932H81.831V20H79.3707ZM93.7685 8.36364V20H91.3082V8.36364H93.7685ZM95.7926 20V8.36364H103.634V10.392H98.2528V13.1648H103.23V15.1932H98.2528V17.9716H103.656V20H95.7926ZM111.902 11.7102C111.857 11.2519 111.661 10.8958 111.317 10.642C110.972 10.3883 110.504 10.2614 109.913 10.2614C109.512 10.2614 109.173 10.3182 108.896 10.4318C108.62 10.5417 108.408 10.6951 108.26 10.892C108.116 11.089 108.044 11.3125 108.044 11.5625C108.036 11.7708 108.08 11.9527 108.175 12.108C108.273 12.2633 108.408 12.3977 108.578 12.5114C108.749 12.6212 108.946 12.7178 109.169 12.8011C109.393 12.8807 109.631 12.9489 109.885 13.0057L110.93 13.2557C111.438 13.3693 111.904 13.5208 112.328 13.7102C112.752 13.8996 113.12 14.1326 113.43 14.4091C113.741 14.6856 113.982 15.0114 114.152 15.3864C114.326 15.7614 114.415 16.1913 114.419 16.6761C114.415 17.3883 114.233 18.0057 113.874 18.5284C113.518 19.0473 113.002 19.4508 112.328 19.7386C111.658 20.0227 110.849 20.1648 109.902 20.1648C108.963 20.1648 108.144 20.0208 107.447 19.733C106.754 19.4451 106.213 19.0189 105.822 18.4545C105.436 17.8864 105.233 17.1837 105.214 16.3466H107.595C107.622 16.7367 107.733 17.0625 107.93 17.3239C108.131 17.5814 108.398 17.7765 108.732 17.9091C109.069 18.0379 109.449 18.1023 109.874 18.1023C110.29 18.1023 110.652 18.0417 110.959 17.9205C111.269 17.7992 111.51 17.6307 111.68 17.4148C111.851 17.1989 111.936 16.9508 111.936 16.6705C111.936 16.4091 111.858 16.1894 111.703 16.0114C111.552 15.8333 111.328 15.6818 111.033 15.5568C110.741 15.4318 110.383 15.3182 109.959 15.2159L108.692 14.8977C107.711 14.6591 106.936 14.286 106.368 13.7784C105.8 13.2708 105.518 12.5871 105.521 11.7273C105.518 11.0227 105.705 10.4072 106.084 9.88068C106.466 9.35417 106.991 8.94318 107.658 8.64773C108.324 8.35227 109.082 8.20455 109.93 8.20455C110.794 8.20455 111.548 8.35227 112.192 8.64773C112.839 8.94318 113.343 9.35417 113.703 9.88068C114.063 10.4072 114.249 11.017 114.26 11.7102H111.902Z" fill="black" fill-opacity="0.7"/>
<line y1="26" x2="74" y2="26" stroke="black" stroke-opacity="0.7" stroke-width="2"/>
<line x1="50" y1="1" x2="113" y2="1" stroke="black" stroke-opacity="0.7" stroke-width="2"/>
</svg>
